  0
SECTION
  2
HEADER
  9
$ACADVER
  1
AC1014
  9
$HANDSEED
  5
FFFF
  9
$MEASUREMENT
 70
     1
  0
ENDSEC
  0
SECTION
  2
TABLES
  0
TABLE
  2
VPORT
  5
8
330
0
100
AcDbSymbolTable
 70
     4
  0
VPORT
  5
2E
330
8
100
AcDbSymbolTableRecord
100
AcDbViewportTableRecord
  2
*ACTIVE
 70
     0
 10
0.0
 20
0.0
 11
1.0
 21
1.0
 12
210.0
 22
148.5
 13
0.0
 23
0.0
 14
10.0
 24
10.0
 15
10.0
 25
10.0
 16
0.0
 26
0.0
 36
1.0
 17
0.0
 27
0.0
 37
0.0
 40
341.0
 41
1.24
 42
50.0
 43
0.0
 44
0.0
 50
0.0
 51
0.0
 71
     0
 72
   100
 73
     1
 74
     3
 75
     0
 76
     0
 77
     0
 78
     0
  0
ENDTAB
  0
TABLE
  2
LTYPE
  5
5
330
0
100
AcDbSymbolTable
 70
     1
  0
LTYPE
  5
14
330
5
100
AcDbSymbolTableRecord
100
AcDbLinetypeTableRecord
  2
BYBLOCK
 70
     0
  3

 72
    65
 73
     0
 40
0.0
  0
LTYPE
  5
15
330
5
100
AcDbSymbolTableRecord
100
AcDbLinetypeTableRecord
  2
BYLAYER
 70
     0
  3

 72
    65
 73
     0
 40
0.0
  0
LTYPE
  5
16
330
5
100
AcDbSymbolTableRecord
100
AcDbLinetypeTableRecord
  2
CONTINUOUS
 70
     0
  3
Solid line
 72
    65
 73
     0
 40
0.0
  0
ENDTAB
  0
TABLE
  2
LAYER
  5
2
100
AcDbSymbolTable
 70
2
  0
LAYER
  5
50
100
AcDbSymbolTableRecord
100
AcDbLayerTableRecord
  2
0
 70
0
  6
CONTINUOUS
  0
LAYER
  5
51
100
AcDbSymbolTableRecord
100
AcDbLayerTableRecord
  2
Layer_1
 70
0
  6
CONTINUOUS
  0
ENDTAB
  0
TABLE
  2
STYLE
  5
3
330
0
100
AcDbSymbolTable
 70
     1
  0
STYLE
  5
11
330
3
100
AcDbSymbolTableRecord
100
AcDbTextStyleTableRecord
  2
STANDARD
 70
     0
 40
0.0
 41
1.0
 50
0.0
 71
     0
 42
2.5
  3
txt
  4

  0
ENDTAB
  0
TABLE
  2
VIEW
  5
6
330
0
100
AcDbSymbolTable
 70
     0
  0
ENDTAB
  0
TABLE
  2
UCS
  5
7
330
0
100
AcDbSymbolTable
 70
     0
  0
ENDTAB
  0
TABLE
  2
APPID
  5
9
330
0
100
AcDbSymbolTable
 70
     2
  0
APPID
  5
12
330
9
100
AcDbSymbolTableRecord
100
AcDbRegAppTableRecord
  2
ACAD
 70
     0
  0
ENDTAB
  0
TABLE
  2
DIMSTYLE
  5
A
330
0
100
AcDbSymbolTable
 70
     1
  0
DIMSTYLE
105
27
330
A
100
AcDbSymbolTableRecord
100
AcDbDimStyleTableRecord
  2
ISO-25
 70
     0
  3

  4

  5

  6

  7

 40
1.0
 41
2.5
 42
0.625
 43
3.75
 44
1.25
 45
0.0
 46
0.0
 47
0.0
 48
0.0
140
2.5
141
2.5
142
0.0
143
0.03937007874016
144
1.0
145
0.0
146
1.0
147
0.625
 71
     0
 72
     0
 73
     0
 74
     0
 75
     0
 76
     0
 77
     1
 78
     8
170
     0
171
     3
172
     1
173
     0
174
     0
175
     0
176
     0
177
     0
178
     0
270
     2
271
     2
272
     2
273
     2
274
     3
340
11
275
     0
280
     0
281
     0
282
     0
283
     0
284
     8
285
     0
286
     0
287
     3
288
     0
  0
ENDTAB
  0
TABLE
  2
BLOCK_RECORD
  5
1
330
0
100
AcDbSymbolTable
 70
     1
  0
BLOCK_RECORD
  5
1F
330
1
100
AcDbSymbolTableRecord
100
AcDbBlockTableRecord
  2
*MODEL_SPACE
  0
BLOCK_RECORD
  5
1B
330
1
100
AcDbSymbolTableRecord
100
AcDbBlockTableRecord
  2
*PAPER_SPACE
  0
ENDTAB
  0
ENDSEC
  0
SECTION
  2
BLOCKS
  0
BLOCK
  5
20
330
1F
100
AcDbEntity
  8
0
100
AcDbBlockBegin
  2
*MODEL_SPACE
 70
     0
 10
0.0
 20
0.0
 30
0.0
  3
*MODEL_SPACE
  1

  0
ENDBLK
  5
21
330
1F
100
AcDbEntity
  8
0
100
AcDbBlockEnd
  0
BLOCK
  5
1C
330
1B
100
AcDbEntity
 67
     1
  8
0
100
AcDbBlockBegin
  2
*PAPER_SPACE
  1

  0
ENDBLK
  5
1D
330
1B
100
AcDbEntity
 67
     1
  8
0
100
AcDbBlockEnd
  0
ENDSEC
  0
SECTION
  2
ENTITIES
  0
LWPOLYLINE
  5
100
100
AcDbEntity
  8
Layer_1
 62
7
100
AcDbPolyline
 90
89
 70
0
 10
153.265556
 20
218.433998
 30
0.0
 10
149.041087
 20
218.250325
 30
0.0
 10
141.458505
 20
217.120150
 30
0.0
 10
134.328913
 20
214.962586
 30
0.0
 10
128.363652
 20
213.002243
 30
0.0
 10
124.777937
 20
213.236063
 30
0.0
 10
119.274779
 20
214.213852
 30
0.0
 10
111.437524
 20
214.296830
 30
0.0
 10
103.208264
 20
213.564732
 30
0.0
 10
96.529090
 20
212.097294
 30
0.0
 10
90.063817
 20
210.187098
 30
0.0
 10
91.554496
 20
211.544365
 30
0.0
 10
95.193037
 20
213.508641
 30
0.0
 10
103.912729
 20
216.854415
 30
0.0
 10
109.735152
 20
218.268692
 30
0.0
 10
104.114769
 20
218.378897
 30
0.0
 10
98.638960
 20
217.625974
 30
0.0
 10
93.080965
 20
215.413501
 30
0.0
 10
88.172548
 20
212.126085
 30
0.0
 10
84.645475
 20
208.148333
 30
0.0
 10
79.355704
 20
201.646323
 30
0.0
 10
75.791826
 20
197.785126
 30
0.0
 10
72.574799
 20
193.199417
 30
0.0
 10
69.800280
 20
188.043306
 30
0.0
 10
67.563924
 20
182.470903
 30
0.0
 10
65.677150
 20
174.571748
 30
0.0
 10
65.892502
 20
164.030176
 30
0.0
 10
66.498622
 20
143.036399
 30
0.0
 10
66.831782
 20
134.256521
 30
0.0
 10
68.555754
 20
128.232387
 30
0.0
 10
71.032074
 20
124.272746
 30
0.0
 10
74.601657
 20
120.771383
 30
0.0
 10
78.908985
 20
118.011251
 30
0.0
 10
83.598540
 20
116.275300
 30
0.0
 10
91.697111
 20
115.330113
 30
0.0
 10
99.063773
 20
116.348768
 30
0.0
 10
113.592277
 20
118.589576
 30
0.0
 10
123.350326
 20
120.133776
 30
0.0
 10
131.096275
 20
122.869146
 30
0.0
 10
136.371863
 20
125.870386
 30
0.0
 10
141.257578
 20
129.523878
 30
0.0
 10
144.846298
 20
133.059682
 30
0.0
 10
146.230896
 20
135.707861
 30
0.0
 10
145.042569
 20
137.438387
 30
0.0
 10
142.208467
 20
139.675188
 30
0.0
 10
138.743794
 20
141.441110
 30
0.0
 10
136.698287
 20
141.015998
 30
0.0
 10
136.236643
 20
140.809275
 30
0.0
 10
136.197760
 20
141.274518
 30
0.0
 10
137.341142
 20
143.991495
 30
0.0
 10
138.889925
 20
148.265433
 30
0.0
 10
139.406856
 20
152.742689
 30
0.0
 10
138.890930
 20
157.055042
 30
0.0
 10
137.341142
 20
160.834272
 30
0.0
 10
135.401092
 20
163.152202
 30
0.0
 10
132.829895
 20
164.890180
 30
0.0
 10
129.734853
 20
166.040832
 30
0.0
 10
126.223270
 20
166.596783
 30
0.0
 10
118.379695
 20
165.895087
 30
0.0
 10
110.157599
 20
162.726100
 30
0.0
 10
104.469582
 20
158.786131
 30
0.0
 10
99.017735
 20
153.533461
 30
0.0
 10
94.461353
 20
147.697543
 30
0.0
 10
91.459727
 20
142.007831
 30
0.0
 10
89.310758
 20
136.277247
 30
0.0
 10
85.765877
 20
140.777224
 30
0.0
 10
80.016926
 20
150.144526
 30
0.0
 10
77.831222
 20
155.011849
 30
0.0
 10
81.835284
 20
162.413855
 30
0.0
 10
86.376801
 20
170.285281
 30
0.0
 10
90.247637
 20
175.888793
 30
0.0
 10
93.324015
 20
179.066550
 30
0.0
 10
95.482159
 20
179.660712
 30
0.0
 10
100.770537
 20
178.637246
 30
0.0
 10
109.025122
 20
178.300015
 30
0.0
 10
117.891864
 20
178.647719
 30
0.0
 10
125.016712
 20
179.679057
 30
0.0
 10
133.639137
 20
182.459316
 30
0.0
 10
141.909579
 20
186.319710
 30
0.0
 10
149.489162
 20
191.079655
 30
0.0
 10
156.039013
 20
196.558567
 30
0.0
 10
162.062256
 20
203.205507
 30
0.0
 10
162.926278
 20
205.613560
 30
0.0
 10
163.092040
 20
208.662593
 30
0.0
 10
162.514347
 20
213.344920
 30
0.0
 10
160.006340
 20
216.303373
 30
0.0
 10
157.160256
 20
217.972713
 30
0.0
 10
153.265556
 20
218.433976
 30
0.0
 10
153.265556
 20
218.433998
 30
0.0
  0
LWPOLYLINE
  5
101
100
AcDbEntity
  8
Layer_1
 62
7
100
AcDbPolyline
 90
34
 70
0
 10
150.841078
 20
215.623807
 30
0.0
 10
154.725942
 20
215.318439
 30
0.0
 10
157.497847
 20
214.261590
 30
0.0
 10
159.159214
 20
212.453203
 30
0.0
 10
159.712465
 20
209.893223
 30
0.0
 10
159.100891
 20
206.472229
 30
0.0
 10
157.335045
 20
202.911908
 30
0.0
 10
154.518247
 20
199.298992
 30
0.0
 10
150.753814
 20
195.720213
 30
0.0
 10
140.795313
 20
189.011993
 30
0.0
 10
128.286084
 20
183.481104
 30
0.0
 10
121.467335
 20
181.877749
 30
0.0
 10
113.100431
 20
180.929881
 30
0.0
 10
105.075877
 20
180.766301
 30
0.0
 10
99.284180
 20
181.515807
 30
0.0
 10
95.573994
 20
182.672943
 30
0.0
 10
98.347451
 20
185.979050
 30
0.0
 10
105.488640
 20
193.010983
 30
0.0
 10
115.282063
 20
201.132041
 30
0.0
 10
119.102454
 20
204.052434
 30
0.0
 10
123.969777
 20
201.609589
 30
0.0
 10
132.235044
 20
195.952473
 30
0.0
 10
135.651356
 20
192.701467
 30
0.0
 10
139.894191
 20
195.585126
 30
0.0
 10
142.796353
 20
198.022361
 30
0.0
 10
143.552750
 20
200.262733
 30
0.0
 10
142.098747
 20
202.758677
 30
0.0
 10
138.369709
 20
205.962630
 30
0.0
 10
133.006471
 20
210.627912
 30
0.0
 10
134.786148
 20
211.962508
 30
0.0
 10
139.625728
 20
213.596074
 30
0.0
 10
145.614331
 20
214.994533
 30
0.0
 10
150.841078
 20
215.623807
 30
0.0
 10
150.841078
 20
215.623807
 30
0.0
  0
LWPOLYLINE
  5
102
100
AcDbEntity
  8
Layer_1
 62
7
100
AcDbPolyline
 90
14
 70
0
 10
114.216761
 20
205.227937
 30
0.0
 10
106.355574
 20
199.644292
 30
0.0
 10
94.618897
 20
190.001481
 30
0.0
 10
89.971979
 20
185.942316
 30
0.0
 10
87.308727
 20
188.825975
 30
0.0
 10
86.300395
 20
190.851008
 30
0.0
 10
86.338618
 20
192.631336
 30
0.0
 10
87.550668
 20
194.543158
 30
0.0
 10
90.063817
 20
196.962673
 30
0.0
 10
93.520704
 20
199.202967
 30
0.0
 10
98.428680
 20
201.468067
 30
0.0
 10
108.596382
 20
204.456514
 30
0.0
 10
114.216761
 20
205.227937
 30
0.0
 10
114.216761
 20
205.227937
 30
0.0
  0
LWPOLYLINE
  5
103
100
AcDbEntity
  8
Layer_1
 62
7
100
AcDbPolyline
 90
14
 70
0
 10
82.606710
 20
187.797410
 30
0.0
 10
84.205509
 20
187.334953
 30
0.0
 10
86.188324
 20
185.887215
 30
0.0
 10
88.888310
 20
183.352532
 30
0.0
 10
85.269962
 20
179.311736
 30
0.0
 10
79.153664
 20
171.891363
 30
0.0
 10
77.250105
 20
169.786007
 30
0.0
 10
76.783365
 20
169.754332
 30
0.0
 10
76.618981
 20
170.385247
 30
0.0
 10
78.960391
 20
179.854507
 30
0.0
 10
80.870480
 20
185.078261
 30
0.0
 10
82.312832
 20
187.705572
 30
0.0
 10
82.606710
 20
187.797410
 30
0.0
 10
82.606710
 20
187.797410
 30
0.0
  0
LWPOLYLINE
  5
104
100
AcDbEntity
  8
Layer_1
 62
7
100
AcDbPolyline
 90
28
 70
0
 10
126.339154
 20
163.424056
 30
0.0
 10
129.559103
 20
162.857825
 30
0.0
 10
132.124839
 20
160.852639
 30
0.0
 10
133.890468
 20
158.438525
 30
0.0
 10
134.870894
 20
155.587193
 30
0.0
 10
135.088411
 20
152.388184
 30
0.0
 10
134.565312
 20
148.931041
 30
0.0
 10
131.386440
 20
141.600516
 30
0.0
 10
125.512627
 20
134.311950
 30
0.0
 10
122.581989
 20
131.599249
 30
0.0
 10
120.232375
 20
130.072895
 30
0.0
 10
117.634635
 20
129.352809
 30
0.0
 10
113.959620
 20
129.058911
 30
0.0
 10
106.344297
 20
129.449674
 30
0.0
 10
99.377216
 20
131.045780
 30
0.0
 10
94.292179
 20
133.439259
 30
0.0
 10
92.840991
 20
134.807523
 30
0.0
 10
92.322989
 20
136.222143
 30
0.0
 10
93.319047
 20
139.621778
 30
0.0
 10
95.850059
 20
144.447408
 30
0.0
 10
99.230278
 20
149.545590
 30
0.0
 10
102.773960
 20
153.762878
 30
0.0
 10
107.332486
 20
157.704744
 30
0.0
 10
112.076255
 20
160.545074
 30
0.0
 10
117.187730
 20
162.368274
 30
0.0
 10
122.849375
 20
163.258750
 30
0.0
 10
126.339154
 20
163.424056
 30
0.0
 10
126.339154
 20
163.424056
 30
0.0
  0
LWPOLYLINE
  5
105
100
AcDbEntity
  8
Layer_1
 62
7
100
AcDbPolyline
 90
6
 70
0
 10
134.788094
 20
138.756826
 30
0.0
 10
133.318713
 20
136.516021
 30
0.0
 10
130.728929
 20
134.256846
 30
0.0
 10
132.198310
 20
136.516021
 30
0.0
 10
134.788094
 20
138.756826
 30
0.0
 10
134.788094
 20
138.756826
 30
0.0
  0
LWPOLYLINE
  5
106
100
AcDbEntity
  8
Layer_1
 62
7
100
AcDbPolyline
 90
18
 70
0
 10
73.588383
 20
136.607856
 30
0.0
 10
75.151423
 20
135.698455
 30
0.0
 10
78.786318
 20
132.181347
 30
0.0
 10
82.547461
 20
128.824116
 30
0.0
 10
86.842414
 20
125.877345
 30
0.0
 10
99.045406
 20
120.022221
 30
0.0
 10
101.855597
 20
118.883451
 30
0.0
 10
98.494387
 20
118.405903
 30
0.0
 10
93.029377
 20
118.185251
 30
0.0
 10
87.423354
 20
118.824600
 30
0.0
 10
82.526851
 20
120.163780
 30
0.0
 10
79.190398
 20
122.042618
 30
0.0
 10
76.832114
 20
124.777664
 30
0.0
 10
74.938544
 20
128.066619
 30
0.0
 10
73.678562
 20
131.544069
 30
0.0
 10
73.221040
 20
134.844599
 30
0.0
 10
73.588383
 20
136.607856
 30
0.0
 10
73.588383
 20
136.607856
 30
0.0
  0
ENDSEC
  0
SECTION
  2
OBJECTS
  0
DICTIONARY
  5
C
330
0
100
AcDbDictionary
  3
ACAD_GROUP
350
D
  3
ACAD_MLINESTYLE
350
17
  0
DICTIONARY
  5
D
330
C
100
AcDbDictionary
  0
DICTIONARY
  5
1A
330
C
100
AcDbDictionary
  0
DICTIONARY
  5
17
330
C
100
AcDbDictionary
  3
STANDARD
350
18
  0
DICTIONARY
  5
19
330
C
100
AcDbDictionary
  0
ENDSEC
  0
EOF
