<?xml version="1.0" encoding="UTF-8" standalone="no"?>
<!-- Created with Inkscape (http://www.inkscape.org/) -->

<svg
   xmlns:dc="http://purl.org/dc/elements/1.1/"
   xmlns:cc="http://creativecommons.org/ns#"
   xmlns:rdf="http://www.w3.org/1999/02/22-rdf-syntax-ns#"
   xmlns:svg="http://www.w3.org/2000/svg"
   xmlns="http://www.w3.org/2000/svg"
   xmlns:sodipodi="http://sodipodi.sourceforge.net/DTD/sodipodi-0.dtd"
   xmlns:inkscape="http://www.inkscape.org/namespaces/inkscape"
   width="744.09448819"
   height="1052.3622047"
   id="svg2"
   version="1.1"
   inkscape:version="0.48.3.1 r9886"
   sodipodi:docname="chorale.dxf">
  <sodipodi:namedview
     id="base"
     pagecolor="#ffffff"
     bordercolor="#666666"
     borderopacity="1.0"
     inkscape:pageopacity="0.0"
     inkscape:pageshadow="2"
     inkscape:zoom="0.49497475"
     inkscape:cx="376.46447"
     inkscape:cy="578.57864"
     inkscape:document-units="px"
     inkscape:current-layer="layer1"
     showgrid="false"
     inkscape:window-width="1600"
     inkscape:window-height="876"
     inkscape:window-x="0"
     inkscape:window-y="24"
     inkscape:window-maximized="1" />
  <defs
     id="defs4" />
  <metadata
     id="metadata7">
    <rdf:RDF>
      <cc:Work
         rdf:about="">
        <dc:format>image/svg+xml</dc:format>
        <dc:type
           rdf:resource="http://purl.org/dc/dcmitype/StillImage" />
        <dc:title></dc:title>
      </cc:Work>
    </rdf:RDF>
  </metadata>
  <g
     inkscape:label="Layer 1"
     inkscape:groupmode="layer"
     id="layer1">
    <path
       style="fill:#000000"
       d="M543.06693 278.38347L528.09834 279.03428L501.23092375 283.03884L475.96859 290.68375L454.83183875 297.62984875L442.12655 296.80135L422.627169219 293.336744375L394.85736875 293.04273L365.698573906 295.636778125L342.03221 300.83636L319.12376 307.60477L324.40569375 302.795558437L337.2981625 295.835525L368.19471 283.98042L388.82534 278.9692L368.9106 278.57871L349.50812625 281.246547813L329.8144425 289.08602L312.422415 300.734344688L299.92491 314.82874L281.18163 337.86736L268.553712656 351.548767344L257.15479875 367.79734125L247.323825469 386.067024531L239.39973 405.81176L232.7143125 433.8008925L233.47737 471.15292L235.62504 545.54032L236.80552625 576.6501225L242.91409 597.99548L251.6884525 612.025704375L264.33658 624.4321075L279.598765 634.212104375L296.2153 640.36311L324.911025 643.71219625L351.01337 640.10279L402.49232 632.16292L437.0680825 626.69134375L464.51436 616.99909L483.207387031 606.364772656L500.51897875 593.41933125L513.234913594 580.890891719L518.14097 571.50758L513.93036125 565.37579375L503.88827 557.45012L491.61187 551.1929175L484.36401 552.69922L482.728263125 553.4317025L482.5904875 551.783205L486.64184 542.15612L492.129654687 527.012245469L493.9613 511.14795375L492.133215312 495.867962656L486.64184 482.47699L479.76764916 474.263851191L470.657107031 468.105661406L459.690422949 464.028549355L447.24780625 462.05864375L419.455612344 464.544966719L390.3222 475.77366L370.167808594 489.734182813L350.85024375 508.346005L334.705582031 529.024452187L324.0699 549.18485L316.45544 569.49007L303.89484 553.54527L283.52454 520.35404L275.77992 503.10762L289.96754 476.88004L306.059530937 448.989160781L319.7750925 429.13419875L330.675645312 417.874429844L338.32261 415.76913L357.060958281 419.395585469L386.30948875 420.59049875L417.727077344 419.358477656L442.9726 415.70413L473.524502656 405.852817656L502.82921625 392.17425625L529.686006719 375.308309219L552.89414 355.89484L574.23634125 332.34269L577.297835469 323.810219687L577.88518 313.00656L575.83823625 296.41563625L566.9516 285.93293L556.86704875 280.01794625L543.06693 278.38355L543.06693 278.38347M534.47626 288.34084L548.241526875 289.422853125L558.0632375 293.167595L563.949971875 299.575264375L565.91031 308.64606L563.743313477 320.767691406L557.486381562 333.383001875L547.505600742 346.184673281L534.1670575 358.8653875L498.881029687 382.634671875L454.55699 402.23231L430.396067812 407.913489531L400.7495575 411.27207375L372.316100937 411.851688594L351.79434 409.19596L338.64801 405.09587L348.47522 393.38132L373.778645 368.46502125L408.47975 339.68962L422.01657 329.34177L439.26299 337.99752L468.54937 358.04242L480.65441 369.56173L495.68808 359.34404L505.971330937 350.70817L508.6514775 342.769845L503.499497812 333.9259475L490.28637 322.57336L471.28277 306.04283L477.588714062 301.313947656L494.7368325 295.52572125L515.956292187 290.570551719L534.47626 288.34084L534.47626 288.34084M404.70506 325.1766L376.85046 344.96117L335.26381 379.12861L318.79835 393.51148L309.36163 383.29379L305.788801719 376.118474687L305.92423875 369.810225L310.218903906 363.036052812L319.12376 354.46297L331.372572344 346.524920625L348.76303875 338.498975L384.79033 327.90999L404.70506 325.1766L404.70506 325.1766M292.70094 386.93831L298.36597625 388.57693875L305.3917 393.70672L314.95858 402.68788L302.13766 417.00566L280.46574 443.29832L273.72084375 450.7582425L272.067042656 450.870478438L271.48458 448.63495L279.78091125 415.08245625L286.548944531 396.573090156L291.65964 387.26372L292.70094 386.93831L292.70094 386.93831M447.65842 473.30059L459.06768875 475.3069175L468.15888 482.41191L474.415044492 490.965857695L477.888994687 501.069002813L478.659723164 512.404072148L476.8062225 524.6537925L465.542504062 550.628093437L444.72978 576.45372L434.345629531 586.065654688L426.02022625 591.473995L416.815637344 594.025480312L403.79393 595.06685L376.810501406 593.68225625L352.12399375 588.026765L334.106146719 579.54593375L328.96413959 574.697752344L327.1287 569.68532L330.658040937 557.639368281L339.6261925 540.54067875L351.603347812 522.476257344L364.1597 507.53311L380.31195875 493.56586625L397.1205875 483.501705L415.2321125 477.04154875L435.29306 473.88632L447.65842 473.30059L447.65842 473.30059M477.59561 560.70416L472.38914 568.64402L463.21274 576.64897L468.41921 568.64402L477.59561 560.70416L477.59561 560.70416M260.74624 568.31862L266.28457125 571.54090875L279.16412 584.0031L292.491003437 595.898801875L307.70934 606.340115L350.94829 627.08662L360.90566 631.12163L348.99586 632.81373L329.631649062 633.59556875L309.76779 631.3301575L292.417975937 626.5850325L280.5959 619.92773L272.239773906 610.236624219L265.53027375 598.58284625L261.065769219 586.261172656L259.44463 574.56638L260.74624 568.31862L260.74624 568.31862"
       id="path3066"
       inkscape:connector-curvature="0" />
  </g>
</svg>
