  0
SECTION
  2
HEADER
  9
$ACADVER
  1
AC1014
  9
$HANDSEED
  5
FFFF
  9
$MEASUREMENT
 70
     1
  0
ENDSEC
  0
SECTION
  2
TABLES
  0
TABLE
  2
VPORT
  5
8
330
0
100
AcDbSymbolTable
 70
     4
  0
VPORT
  5
2E
330
8
100
AcDbSymbolTableRecord
100
AcDbViewportTableRecord
  2
*ACTIVE
 70
     0
 10
0.0
 20
0.0
 11
1.0
 21
1.0
 12
210.0
 22
148.5
 13
0.0
 23
0.0
 14
10.0
 24
10.0
 15
10.0
 25
10.0
 16
0.0
 26
0.0
 36
1.0
 17
0.0
 27
0.0
 37
0.0
 40
341.0
 41
1.24
 42
50.0
 43
0.0
 44
0.0
 50
0.0
 51
0.0
 71
     0
 72
   100
 73
     1
 74
     3
 75
     0
 76
     0
 77
     0
 78
     0
  0
ENDTAB
  0
TABLE
  2
LTYPE
  5
5
330
0
100
AcDbSymbolTable
 70
     1
  0
LTYPE
  5
14
330
5
100
AcDbSymbolTableRecord
100
AcDbLinetypeTableRecord
  2
BYBLOCK
 70
     0
  3

 72
    65
 73
     0
 40
0.0
  0
LTYPE
  5
15
330
5
100
AcDbSymbolTableRecord
100
AcDbLinetypeTableRecord
  2
BYLAYER
 70
     0
  3

 72
    65
 73
     0
 40
0.0
  0
LTYPE
  5
16
330
5
100
AcDbSymbolTableRecord
100
AcDbLinetypeTableRecord
  2
CONTINUOUS
 70
     0
  3
Solid line
 72
    65
 73
     0
 40
0.0
  0
ENDTAB
  0
TABLE
  2
LAYER
  5
2
100
AcDbSymbolTable
 70
1
  0
LAYER
  5
50
100
AcDbSymbolTableRecord
100
AcDbLayerTableRecord
  2
0
 70
0
  6
CONTINUOUS
  0
ENDTAB
  0
TABLE
  2
STYLE
  5
3
330
0
100
AcDbSymbolTable
 70
     1
  0
STYLE
  5
11
330
3
100
AcDbSymbolTableRecord
100
AcDbTextStyleTableRecord
  2
STANDARD
 70
     0
 40
0.0
 41
1.0
 50
0.0
 71
     0
 42
2.5
  3
txt
  4

  0
ENDTAB
  0
TABLE
  2
VIEW
  5
6
330
0
100
AcDbSymbolTable
 70
     0
  0
ENDTAB
  0
TABLE
  2
UCS
  5
7
330
0
100
AcDbSymbolTable
 70
     0
  0
ENDTAB
  0
TABLE
  2
APPID
  5
9
330
0
100
AcDbSymbolTable
 70
     2
  0
APPID
  5
12
330
9
100
AcDbSymbolTableRecord
100
AcDbRegAppTableRecord
  2
ACAD
 70
     0
  0
ENDTAB
  0
TABLE
  2
DIMSTYLE
  5
A
330
0
100
AcDbSymbolTable
 70
     1
  0
DIMSTYLE
105
27
330
A
100
AcDbSymbolTableRecord
100
AcDbDimStyleTableRecord
  2
ISO-25
 70
     0
  3

  4

  5

  6

  7

 40
1.0
 41
2.5
 42
0.625
 43
3.75
 44
1.25
 45
0.0
 46
0.0
 47
0.0
 48
0.0
140
2.5
141
2.5
142
0.0
143
0.03937007874016
144
1.0
145
0.0
146
1.0
147
0.625
 71
     0
 72
     0
 73
     0
 74
     0
 75
     0
 76
     0
 77
     1
 78
     8
170
     0
171
     3
172
     1
173
     0
174
     0
175
     0
176
     0
177
     0
178
     0
270
     2
271
     2
272
     2
273
     2
274
     3
340
11
275
     0
280
     0
281
     0
282
     0
283
     0
284
     8
285
     0
286
     0
287
     3
288
     0
  0
ENDTAB
  0
TABLE
  2
BLOCK_RECORD
  5
1
330
0
100
AcDbSymbolTable
 70
     1
  0
BLOCK_RECORD
  5
1F
330
1
100
AcDbSymbolTableRecord
100
AcDbBlockTableRecord
  2
*MODEL_SPACE
  0
BLOCK_RECORD
  5
1B
330
1
100
AcDbSymbolTableRecord
100
AcDbBlockTableRecord
  2
*PAPER_SPACE
  0
ENDTAB
  0
ENDSEC
  0
SECTION
  2
BLOCKS
  0
BLOCK
  5
20
330
1F
100
AcDbEntity
  8
0
100
AcDbBlockBegin
  2
*MODEL_SPACE
 70
     0
 10
0.0
 20
0.0
 30
0.0
  3
*MODEL_SPACE
  1

  0
ENDBLK
  5
21
330
1F
100
AcDbEntity
  8
0
100
AcDbBlockEnd
  0
BLOCK
  5
1C
330
1B
100
AcDbEntity
 67
     1
  8
0
100
AcDbBlockBegin
  2
*PAPER_SPACE
  1

  0
ENDBLK
  5
1D
330
1B
100
AcDbEntity
 67
     1
  8
0
100
AcDbBlockEnd
  0
ENDSEC
  0
SECTION
  2
ENTITIES
  0
LWPOLYLINE
  5
100
100
AcDbEntity
  8
0
 62
7
100
AcDbPolyline
 90
108
 70
0
 10
-15.032953
 20
147.956414
 30
0.0
 10
-21.008602
 20
148.758254
 30
0.0
 10
-23.204684
 20
149.495851
 30
0.0
 10
-23.455381
 20
149.594316
 30
0.0
 10
-26.033477
 20
150.331884
 30
0.0
 10
-26.300246
 20
150.432293
 30
0.0
 10
-29.200661
 20
151.477052
 30
0.0
 10
-33.252912
 20
153.904922
 30
0.0
 10
-36.487541
 20
156.733349
 30
0.0
 10
-39.137467
 20
159.924782
 30
0.0
 10
-41.202556
 20
163.479028
 30
0.0
 10
-42.682674
 20
167.395895
 30
0.0
 10
-43.396287
 20
169.967964
 30
0.0
 10
-34.247582
 20
170.077503
 30
0.0
 10
-24.956530
 20
169.724725
 30
0.0
 10
-24.791900
 20
169.724725
 30
0.0
 10
-24.364084
 20
169.959171
 30
0.0
 10
-23.388122
 20
168.454725
 30
0.0
 10
-21.560597
 20
165.870007
 30
0.0
 10
-20.731985
 20
164.626956
 30
0.0
 10
-20.621634
 20
164.521422
 30
0.0
 10
-19.269146
 20
164.152295
 30
0.0
 10
-15.757929
 20
163.062105
 30
0.0
 10
-11.718306
 20
162.814615
 30
0.0
 10
-7.934770
 20
163.378135
 30
0.0
 10
-5.191811
 20
164.720973
 30
0.0
 10
-4.095123
 20
165.395597
 30
0.0
 10
-3.983953
 20
165.754798
 30
0.0
 10
-3.652531
 20
166.189954
 30
0.0
 10
-3.465161
 20
166.413984
 30
0.0
 10
-3.290022
 20
167.151171
 30
0.0
 10
-2.924056
 20
169.502601
 30
0.0
 10
-3.308000
 20
172.231626
 30
0.0
 10
-4.768336
 20
173.768949
 30
0.0
 10
-5.658265
 20
174.692321
 30
0.0
 10
-5.811413
 20
174.764646
 30
0.0
 10
-7.429708
 20
175.007544
 30
0.0
 10
-14.750725
 20
176.728484
 30
0.0
 10
-16.296670
 20
177.017398
 30
0.0
 10
-20.636509
 20
178.001095
 30
0.0
 10
-24.822861
 20
179.000412
 30
0.0
 10
-25.986356
 20
179.301005
 30
0.0
 10
-28.720731
 20
180.166487
 30
0.0
 10
-35.338076
 20
184.102785
 30
0.0
 10
-37.845361
 20
186.624830
 30
0.0
 10
-39.596246
 20
189.328989
 30
0.0
 10
-40.439614
 20
191.751910
 30
0.0
 10
-40.545862
 20
191.967155
 30
0.0
 10
-41.092473
 20
193.575274
 30
0.0
 10
-41.341982
 20
201.565532
 30
0.0
 10
-40.517152
 20
205.144300
 30
0.0
 10
-39.040074
 20
208.585856
 30
0.0
 10
-35.778337
 20
213.171974
 30
0.0
 10
-33.203317
 20
215.071571
 30
0.0
 10
-33.048462
 20
215.157473
 30
0.0
 10
-32.464270
 20
216.071430
 30
0.0
 10
-28.631159
 20
218.177085
 30
0.0
 10
-23.217397
 20
220.210261
 30
0.0
 10
-20.859961
 20
220.715693
 30
0.0
 10
-16.318731
 20
221.313413
 30
0.0
 10
-11.310391
 20
221.253415
 30
0.0
 10
-6.250868
 20
220.566554
 30
0.0
 10
-1.556089
 20
219.283684
 30
0.0
 10
4.444083
 20
216.085714
 30
0.0
 10
4.796195
 20
215.899921
 30
0.0
 10
5.209498
 20
215.564858
 30
0.0
 10
5.421164
 20
215.369846
 30
0.0
 10
5.710380
 20
215.233058
 30
0.0
 10
5.968148
 20
215.076831
 30
0.0
 10
10.790380
 20
209.950510
 30
0.0
 10
11.026465
 20
209.588614
 30
0.0
 10
13.497707
 20
204.334051
 30
0.0
 10
13.602666
 20
204.079136
 30
0.0
 10
14.695651
 20
200.924061
 30
0.0
 10
14.957522
 20
199.738401
 30
0.0
 10
5.989760
 20
199.718758
 30
0.0
 10
-2.978000
 20
199.699115
 30
0.0
 10
-3.832818
 20
201.213768
 30
0.0
 10
-6.452674
 20
204.251573
 30
0.0
 10
-9.670731
 20
206.077865
 30
0.0
 10
-16.091286
 20
206.481497
 30
0.0
 10
-19.747263
 20
205.539459
 30
0.0
 10
-22.190938
 20
203.444783
 30
0.0
 10
-23.076286
 20
200.259208
 30
0.0
 10
-22.414879
 20
197.478890
 30
0.0
 10
-20.272079
 20
195.624696
 30
0.0
 10
-12.916286
 20
193.536197
 30
0.0
 10
0.121748
 20
190.338247
 30
0.0
 10
1.870981
 20
189.503287
 30
0.0
 10
2.138533
 20
189.431888
 30
0.0
 10
5.681310
 20
187.940369
 30
0.0
 10
10.370281
 20
184.333001
 30
0.0
 10
12.988849
 20
181.090691
 30
0.0
 10
13.950742
 20
178.755858
 30
0.0
 10
14.164260
 20
178.544192
 30
0.0
 10
14.874193
 20
176.286414
 30
0.0
 10
15.146506
 20
175.741948
 30
0.0
 10
15.526188
 20
171.790837
 30
0.0
 10
15.316772
 20
167.127853
 30
0.0
 10
14.294141
 20
163.014459
 30
0.0
 10
12.392444
 20
159.273794
 30
0.0
 10
9.545828
 20
155.728997
 30
0.0
 10
6.560064
 20
153.245116
 30
0.0
 10
2.767683
 20
151.081946
 30
0.0
 10
-1.487265
 20
149.403719
 30
0.0
 10
-5.860731
 20
148.374667
 30
0.0
 10
-15.032953
 20
147.956437
 30
0.0
 10
-15.032953
 20
147.956414
 30
0.0
  0
LWPOLYLINE
  5
101
100
AcDbEntity
  8
0
 62
7
100
AcDbPolyline
 90
5
 70
0
 10
13.517290
 20
201.192503
 30
0.0
 10
13.374940
 20
200.839725
 30
0.0
 10
13.517290
 20
200.486947
 30
0.0
 10
13.517290
 20
201.192503
 30
0.0
 10
13.517290
 20
201.192503
 30
0.0
  0
LWPOLYLINE
  5
102
100
AcDbEntity
  8
0
 62
7
100
AcDbPolyline
 90
5
 70
0
 10
-36.797491
 20
210.873272
 30
0.0
 10
-36.908407
 20
211.138838
 30
0.0
 10
-37.187398
 20
210.700846
 30
0.0
 10
-36.797491
 20
210.873272
 30
0.0
 10
-36.797491
 20
210.873272
 30
0.0
  0
LWPOLYLINE
  5
103
100
AcDbEntity
  8
0
 62
7
100
AcDbPolyline
 90
5
 70
0
 10
7.121491
 20
212.521752
 30
0.0
 10
6.683499
 20
212.800740
 30
0.0
 10
6.417934
 20
212.689824
 30
0.0
 10
7.121491
 20
212.521752
 30
0.0
 10
7.121491
 20
212.521752
 30
0.0
  0
LWPOLYLINE
  5
104
100
AcDbEntity
  8
0
 62
7
100
AcDbPolyline
 90
59
 70
0
 10
382.900372
 20
147.946928
 30
0.0
 10
379.825758
 20
148.219445
 30
0.0
 10
377.709091
 20
148.675829
 30
0.0
 10
377.490990
 20
148.776622
 30
0.0
 10
372.627098
 20
149.772282
 30
0.0
 10
367.701294
 20
151.969538
 30
0.0
 10
367.101826
 20
152.297503
 30
0.0
 10
363.617171
 20
154.545154
 30
0.0
 10
363.166886
 20
155.437668
 30
0.0
 10
363.021654
 20
155.554155
 30
0.0
 10
361.272600
 20
156.820103
 30
0.0
 10
360.024454
 20
158.707763
 30
0.0
 10
359.877247
 20
158.916122
 30
0.0
 10
359.191959
 20
159.256291
 30
0.0
 10
358.909281
 20
160.125783
 30
0.0
 10
358.733683
 20
160.408005
 30
0.0
 10
356.396357
 20
164.612858
 30
0.0
 10
354.965452
 20
169.521274
 30
0.0
 10
354.892441
 20
169.795280
 30
0.0
 10
354.153414
 20
175.221951
 30
0.0
 10
353.972594
 20
197.401059
 30
0.0
 10
353.972594
 20
220.320876
 30
0.0
 10
363.074260
 20
220.246411
 30
0.0
 10
372.175927
 20
220.171947
 30
0.0
 10
372.326888
 20
197.594169
 30
0.0
 10
372.537489
 20
177.850880
 30
0.0
 10
373.065294
 20
173.181947
 30
0.0
 10
374.345256
 20
170.149999
 30
0.0
 10
376.222288
 20
167.726374
 30
0.0
 10
379.992968
 20
165.194179
 30
0.0
 10
385.158149
 20
164.443348
 30
0.0
 10
389.728333
 20
165.133528
 30
0.0
 10
393.073918
 20
167.104881
 30
0.0
 10
395.226766
 20
169.677805
 30
0.0
 10
395.212655
 20
170.029714
 30
0.0
 10
395.841559
 20
170.438976
 30
0.0
 10
395.917194
 20
170.585917
 30
0.0
 10
396.169501
 20
171.966723
 30
0.0
 10
396.787824
 20
173.866606
 30
0.0
 10
397.128372
 20
177.280544
 30
0.0
 10
397.415371
 20
197.735280
 30
0.0
 10
397.575899
 20
220.171947
 30
0.0
 10
406.607010
 20
220.171947
 30
0.0
 10
415.638121
 20
220.171947
 30
0.0
 10
415.718018
 20
197.594169
 30
0.0
 10
415.618514
 20
175.726220
 30
0.0
 10
414.622178
 20
168.198978
 30
0.0
 10
412.298501
 20
162.528301
 30
0.0
 10
411.875168
 20
162.294663
 30
0.0
 10
412.039788
 20
162.287805
 30
0.0
 10
412.335299
 20
162.116379
 30
0.0
 10
411.411335
 20
160.602185
 30
0.0
 10
409.935990
 20
158.506397
 30
0.0
 10
404.003369
 20
153.041818
 30
0.0
 10
399.326079
 20
150.602331
 30
0.0
 10
394.471454
 20
148.962756
 30
0.0
 10
388.131195
 20
148.025520
 30
0.0
 10
382.900343
 20
147.946934
 30
0.0
 10
382.900372
 20
147.946928
 30
0.0
  0
LWPOLYLINE
  5
105
100
AcDbEntity
  8
0
 62
7
100
AcDbPolyline
 90
5
 70
0
 10
374.682512
 20
168.257717
 30
0.0
 10
374.571570
 20
168.523282
 30
0.0
 10
374.292594
 20
168.085290
 30
0.0
 10
374.682512
 20
168.257717
 30
0.0
 10
374.682512
 20
168.257717
 30
0.0
  0
LWPOLYLINE
  5
106
100
AcDbEntity
  8
0
 62
7
100
AcDbPolyline
 90
59
 70
0
 10
13.612603
 20
149.373302
 30
0.0
 10
21.243979
 20
169.654169
 30
0.0
 10
24.086355
 20
177.203614
 30
0.0
 10
24.628927
 20
178.261947
 30
0.0
 10
24.809640
 20
178.614725
 30
0.0
 10
30.129556
 20
192.937503
 30
0.0
 10
31.985958
 20
197.805836
 30
0.0
 10
32.594844
 20
198.864169
 30
0.0
 10
32.686216
 20
199.108181
 30
0.0
 10
34.906500
 20
204.591257
 30
0.0
 10
34.947468
 20
204.722713
 30
0.0
 10
35.770814
 20
207.821756
 30
0.0
 10
39.434798
 20
217.349725
 30
0.0
 10
40.003530
 20
218.901947
 30
0.0
 10
40.363114
 20
219.732963
 30
0.0
 10
41.480056
 20
220.150196
 30
0.0
 10
50.037170
 20
220.313058
 30
0.0
 10
59.476592
 20
220.026179
 30
0.0
 10
59.792193
 20
218.976612
 30
0.0
 10
60.204056
 20
217.884299
 30
0.0
 10
62.262698
 20
212.551947
 30
0.0
 10
62.488366
 20
211.987503
 30
0.0
 10
64.273893
 20
207.471947
 30
0.0
 10
66.813828
 20
200.839725
 30
0.0
 10
75.529361
 20
177.512785
 30
0.0
 10
75.820008
 20
177.065195
 30
0.0
 10
75.893795
 20
176.741365
 30
0.0
 10
75.935685
 20
176.397818
 30
0.0
 10
76.663336
 20
174.268875
 30
0.0
 10
76.827693
 20
174.168065
 30
0.0
 10
77.053180
 20
173.655767
 30
0.0
 10
77.120617
 20
173.045789
 30
0.0
 10
77.624869
 20
172.402249
 30
0.0
 10
79.078923
 20
168.681789
 30
0.0
 10
80.327142
 20
165.295123
 30
0.0
 10
80.881395
 20
163.807123
 30
0.0
 10
81.345936
 20
162.509928
 30
0.0
 10
81.733032
 20
161.442530
 30
0.0
 10
83.457601
 20
157.095280
 30
0.0
 10
85.440212
 20
152.015280
 30
0.0
 10
86.274659
 20
149.828058
 30
0.0
 10
86.463973
 20
149.193058
 30
0.0
 10
77.124636
 20
149.193058
 30
0.0
 10
67.785299
 20
149.193058
 30
0.0
 10
67.478252
 20
149.969169
 30
0.0
 10
65.482230
 20
155.970712
 30
0.0
 10
65.367354
 20
156.182379
 30
0.0
 10
64.125004
 20
159.070836
 30
0.0
 10
62.948656
 20
162.245836
 30
0.0
 10
60.765233
 20
162.665154
 30
0.0
 10
49.639875
 20
162.739725
 30
0.0
 10
36.580341
 20
162.739725
 30
0.0
 10
36.127811
 20
161.399169
 30
0.0
 10
34.686977
 20
157.377503
 30
0.0
 10
32.725109
 20
152.015280
 30
0.0
 10
31.751555
 20
149.334169
 30
0.0
 10
22.682079
 20
149.259705
 30
0.0
 10
13.612603
 20
149.373302
 30
0.0
 10
13.612603
 20
149.373302
 30
0.0
  0
LWPOLYLINE
  5
107
100
AcDbEntity
  8
0
 62
7
100
AcDbPolyline
 90
20
 70
0
 10
56.962703
 20
178.429277
 30
0.0
 10
56.611373
 20
179.628721
 30
0.0
 10
56.226024
 20
180.660836
 30
0.0
 10
55.682284
 20
182.071947
 30
0.0
 10
54.958595
 20
184.188614
 30
0.0
 10
53.253307
 20
188.845280
 30
0.0
 10
51.380557
 20
193.882182
 30
0.0
 10
50.984156
 20
195.660730
 30
0.0
 10
50.876471
 20
195.907347
 30
0.0
 10
50.270588
 20
196.880466
 30
0.0
 10
49.750178
 20
198.017503
 30
0.0
 10
48.338796
 20
194.560280
 30
0.0
 10
46.812900
 20
190.538614
 30
0.0
 10
46.469009
 20
189.691947
 30
0.0
 10
44.930325
 20
185.317503
 30
0.0
 10
42.592171
 20
178.191391
 30
0.0
 10
49.925010
 20
177.979725
 30
0.0
 10
55.932003
 20
178.052992
 30
0.0
 10
56.962703
 20
178.429277
 30
0.0
 10
56.962703
 20
178.429277
 30
0.0
  0
LWPOLYLINE
  5
108
100
AcDbEntity
  8
0
 62
7
100
AcDbPolyline
 90
5
 70
0
 10
70.164731
 20
189.706606
 30
0.0
 10
70.053815
 20
189.972171
 30
0.0
 10
69.774824
 20
189.534179
 30
0.0
 10
70.164731
 20
189.706606
 30
0.0
 10
70.164731
 20
189.706606
 30
0.0
  0
LWPOLYLINE
  5
109
100
AcDbEntity
  8
0
 62
7
100
AcDbPolyline
 90
10
 70
0
 10
88.683713
 20
184.756913
 30
0.0
 10
88.683713
 20
220.320771
 30
0.0
 10
97.926491
 20
220.246358
 30
0.0
 10
107.169269
 20
220.171947
 30
0.0
 10
107.240914
 20
184.682503
 30
0.0
 10
107.312559
 20
149.193058
 30
0.0
 10
97.998136
 20
149.193058
 30
0.0
 10
88.683713
 20
149.193058
 30
0.0
 10
88.683713
 20
184.756913
 30
0.0
 10
88.683713
 20
184.756913
 30
0.0
  0
LWPOLYLINE
  5
10a
100
AcDbEntity
  8
0
 62
7
100
AcDbPolyline
 90
18
 70
0
 10
115.212602
 20
184.738145
 30
0.0
 10
115.212602
 20
220.286574
 30
0.0
 10
124.525936
 20
220.305342
 30
0.0
 10
133.839269
 20
220.324082
 30
0.0
 10
133.839269
 20
192.660792
 30
0.0
 10
133.839269
 20
164.997503
 30
0.0
 10
148.674955
 20
164.997503
 30
0.0
 10
161.320219
 20
164.925268
 30
0.0
 10
163.368674
 20
164.503614
 30
0.0
 10
162.593714
 20
159.988058
 30
0.0
 10
161.737740
 20
155.966391
 30
0.0
 10
161.637895
 20
155.613614
 30
0.0
 10
161.265204
 20
152.297503
 30
0.0
 10
160.769379
 20
149.334169
 30
0.0
 10
137.990992
 20
149.261946
 30
0.0
 10
115.212602
 20
149.189719
 30
0.0
 10
115.212602
 20
184.738148
 30
0.0
 10
115.212602
 20
184.738145
 30
0.0
  0
LWPOLYLINE
  5
10b
100
AcDbEntity
  8
0
 62
7
100
AcDbPolyline
 90
57
 70
0
 10
167.285568
 20
149.470477
 30
0.0
 10
167.271401
 20
150.669921
 30
0.0
 10
168.697269
 20
158.788611
 30
0.0
 10
170.082865
 20
166.690833
 30
0.0
 10
171.290152
 20
173.464166
 30
0.0
 10
171.522082
 20
174.593055
 30
0.0
 10
171.757648
 20
176.145277
 30
0.0
 10
172.198939
 20
178.685277
 30
0.0
 10
173.825809
 20
187.293055
 30
0.0
 10
173.938001
 20
187.992969
 30
0.0
 10
174.340712
 20
190.956303
 30
0.0
 10
176.619098
 20
203.450277
 30
0.0
 10
176.781903
 20
204.226389
 30
0.0
 10
165.747435
 20
204.226389
 30
0.0
 10
154.712969
 20
204.226389
 30
0.0
 10
154.857148
 20
204.861389
 30
0.0
 10
155.999019
 20
211.423055
 30
0.0
 10
157.291334
 20
218.831389
 30
0.0
 10
157.585955
 20
220.313058
 30
0.0
 10
195.101501
 20
220.313058
 30
0.0
 10
232.617047
 20
220.313058
 30
0.0
 10
232.617047
 20
206.766391
 30
0.0
 10
232.617047
 20
193.219725
 30
0.0
 10
246.304824
 20
193.219725
 30
0.0
 10
260.141745
 20
193.149169
 30
0.0
 10
260.353412
 20
206.625280
 30
0.0
 10
260.415924
 20
220.171947
 30
0.0
 10
269.588149
 20
220.171947
 30
0.0
 10
278.760372
 20
220.171947
 30
0.0
 10
278.832028
 20
184.682503
 30
0.0
 10
278.903656
 20
149.193058
 30
0.0
 10
269.584424
 20
149.193058
 30
0.0
 10
260.265189
 20
149.193058
 30
0.0
 10
260.280147
 20
163.341149
 30
0.0
 10
260.143834
 20
177.640409
 30
0.0
 10
259.992676
 20
177.462318
 30
0.0
 10
246.304909
 20
177.133058
 30
0.0
 10
232.617131
 20
177.133058
 30
0.0
 10
232.617131
 20
163.163058
 30
0.0
 10
232.617131
 20
149.193058
 30
0.0
 10
223.444909
 20
149.193058
 30
0.0
 10
214.272687
 20
149.193058
 30
0.0
 10
214.272687
 20
176.709725
 30
0.0
 10
214.272687
 20
204.226391
 30
0.0
 10
204.744402
 20
204.226391
 30
0.0
 10
195.216120
 20
204.226391
 30
0.0
 10
194.167334
 20
198.370280
 30
0.0
 10
192.959318
 20
191.385280
 30
0.0
 10
191.422314
 20
182.636391
 30
0.0
 10
190.281625
 20
176.145280
 30
0.0
 10
188.736393
 20
167.396391
 30
0.0
 10
186.900772
 20
156.954169
 30
0.0
 10
185.597498
 20
149.686947
 30
0.0
 10
184.093894
 20
149.268660
 30
0.0
 10
176.452547
 20
149.193058
 30
0.0
 10
167.285653
 20
149.470480
 30
0.0
 10
167.285568
 20
149.470477
 30
0.0
  0
LWPOLYLINE
  5
10c
100
AcDbEntity
  8
0
 62
7
100
AcDbPolyline
 90
55
 70
0
 10
288.284271
 20
184.682503
 30
0.0
 10
288.355927
 20
220.171947
 30
0.0
 10
304.160372
 20
220.252860
 30
0.0
 10
320.960528
 20
220.126968
 30
0.0
 10
328.149260
 20
219.314674
 30
0.0
 10
336.181390
 20
215.893201
 30
0.0
 10
342.163090
 20
210.073480
 30
0.0
 10
344.742685
 20
204.360825
 30
0.0
 10
345.987448
 20
197.340231
 30
0.0
 10
345.364590
 20
190.016494
 30
0.0
 10
344.326577
 20
186.627967
 30
0.0
 10
343.385422
 20
185.252580
 30
0.0
 10
343.357059
 20
185.111669
 30
0.0
 10
342.614984
 20
183.293399
 30
0.0
 10
341.847706
 20
182.119693
 30
0.0
 10
337.215621
 20
177.500545
 30
0.0
 10
335.910372
 20
176.569407
 30
0.0
 10
331.623980
 20
174.766577
 30
0.0
 10
332.105536
 20
173.876820
 30
0.0
 10
334.010536
 20
171.135836
 30
0.0
 10
336.122038
 20
167.960207
 30
0.0
 10
337.462594
 20
165.910108
 30
0.0
 10
338.383174
 20
164.390335
 30
0.0
 10
338.850422
 20
162.842098
 30
0.0
 10
338.937092
 20
162.673702
 30
0.0
 10
340.162162
 20
161.685924
 30
0.0
 10
341.059939
 20
160.129169
 30
0.0
 10
341.302792
 20
159.917503
 30
0.0
 10
341.447120
 20
159.479511
 30
0.0
 10
341.524082
 20
159.192948
 30
0.0
 10
347.673761
 20
150.240853
 30
0.0
 10
348.307406
 20
149.171982
 30
0.0
 10
338.061667
 20
149.205837
 30
0.0
 10
327.815928
 20
149.239695
 30
0.0
 10
326.794481
 20
150.980267
 30
0.0
 10
324.211640
 20
155.119725
 30
0.0
 10
322.785966
 20
157.886050
 30
0.0
 10
322.671412
 20
158.098809
 30
0.0
 10
320.670372
 20
160.977024
 30
0.0
 10
320.441207
 20
161.375652
 30
0.0
 10
318.279836
 20
164.574169
 30
0.0
 10
315.530484
 20
168.880429
 30
0.0
 10
314.913236
 20
170.405702
 30
0.0
 10
314.818183
 20
170.546863
 30
0.0
 10
314.062505
 20
171.067705
 30
0.0
 10
313.783980
 20
171.770836
 30
0.0
 10
313.614816
 20
172.194169
 30
0.0
 10
309.911383
 20
172.617503
 30
0.0
 10
306.559260
 20
172.617503
 30
0.0
 10
306.559260
 20
160.905280
 30
0.0
 10
306.559260
 20
149.193058
 30
0.0
 10
297.385938
 20
149.193058
 30
0.0
 10
288.212643
 20
149.193058
 30
0.0
 10
288.284271
 20
184.682503
 30
0.0
 10
288.284271
 20
184.682503
 30
0.0
  0
LWPOLYLINE
  5
10d
100
AcDbEntity
  8
0
 62
7
100
AcDbPolyline
 90
6
 70
0
 10
328.854816
 20
150.987371
 30
0.0
 10
328.313034
 20
150.321947
 30
0.0
 10
328.090466
 20
149.799899
 30
0.0
 10
328.415904
 20
150.164221
 30
0.0
 10
328.854816
 20
150.987371
 30
0.0
 10
328.854816
 20
150.987371
 30
0.0
  0
LWPOLYLINE
  5
10e
100
AcDbEntity
  8
0
 62
7
100
AcDbPolyline
 90
5
 70
0
 10
326.422512
 20
153.299939
 30
0.0
 10
326.311570
 20
153.565504
 30
0.0
 10
326.032594
 20
153.127512
 30
0.0
 10
326.422512
 20
153.299939
 30
0.0
 10
326.422512
 20
153.299939
 30
0.0
  0
LWPOLYLINE
  5
10f
100
AcDbEntity
  8
0
 62
7
100
AcDbPolyline
 90
7
 70
0
 10
336.960549
 20
165.410876
 30
0.0
 10
336.851696
 20
165.464323
 30
0.0
 10
336.409594
 20
165.616475
 30
0.0
 10
336.122828
 20
165.504961
 30
0.0
 10
336.319227
 20
165.110137
 30
0.0
 10
336.960549
 20
165.410876
 30
0.0
 10
336.960549
 20
165.410876
 30
0.0
  0
LWPOLYLINE
  5
110
100
AcDbEntity
  8
0
 62
7
100
AcDbPolyline
 90
16
 70
0
 10
320.984626
 20
187.579536
 30
0.0
 10
324.138001
 20
188.711156
 30
0.0
 10
326.355089
 20
190.636909
 30
0.0
 10
327.333300
 20
192.225222
 30
0.0
 10
327.719888
 20
193.772068
 30
0.0
 10
327.652468
 20
198.204115
 30
0.0
 10
325.805800
 20
202.065484
 30
0.0
 10
324.066237
 20
203.405246
 30
0.0
 10
321.613516
 20
204.240539
 30
0.0
 10
312.674480
 20
204.790836
 30
0.0
 10
306.559260
 20
204.790836
 30
0.0
 10
306.559260
 20
196.041947
 30
0.0
 10
306.559260
 20
187.293058
 30
0.0
 10
313.011848
 20
187.293058
 30
0.0
 10
320.984626
 20
187.579536
 30
0.0
 10
320.984626
 20
187.579536
 30
0.0
  0
LWPOLYLINE
  5
111
100
AcDbEntity
  8
0
 62
7
100
AcDbPolyline
 90
5
 70
0
 10
328.765380
 20
198.070419
 30
0.0
 10
328.594861
 20
197.899909
 30
0.0
 10
328.743112
 20
197.529492
 30
0.0
 10
328.765408
 20
198.070419
 30
0.0
 10
328.765380
 20
198.070419
 30
0.0
  0
ENDSEC
  0
SECTION
  2
OBJECTS
  0
DICTIONARY
  5
C
330
0
100
AcDbDictionary
  3
ACAD_GROUP
350
D
  3
ACAD_MLINESTYLE
350
17
  0
DICTIONARY
  5
D
330
C
100
AcDbDictionary
  0
DICTIONARY
  5
1A
330
C
100
AcDbDictionary
  0
DICTIONARY
  5
17
330
C
100
AcDbDictionary
  3
STANDARD
350
18
  0
DICTIONARY
  5
19
330
C
100
AcDbDictionary
  0
ENDSEC
  0
EOF
