<?xml version="1.0" encoding="UTF-8" standalone="no"?>
<!-- Created with Inkscape (http://www.inkscape.org/) -->

<svg
   xmlns:dc="http://purl.org/dc/elements/1.1/"
   xmlns:cc="http://creativecommons.org/ns#"
   xmlns:rdf="http://www.w3.org/1999/02/22-rdf-syntax-ns#"
   xmlns:svg="http://www.w3.org/2000/svg"
   xmlns="http://www.w3.org/2000/svg"
   xmlns:sodipodi="http://sodipodi.sourceforge.net/DTD/sodipodi-0.dtd"
   xmlns:inkscape="http://www.inkscape.org/namespaces/inkscape"
   id="svg3039"
   version="1.1"
   inkscape:version="0.48.3.1 r9886"
   width="1628"
   height="261"
   sodipodi:docname="sailthru_logo.dxf">
  <sodipodi:namedview
     pagecolor="#ffffff"
     bordercolor="#666666"
     borderopacity="1"
     objecttolerance="10"
     gridtolerance="10"
     guidetolerance="10"
     inkscape:pageopacity="0"
     inkscape:pageshadow="2"
     inkscape:window-width="1600"
     inkscape:window-height="876"
     id="namedview3041"
     showgrid="false"
     inkscape:zoom="0.48124958"
     inkscape:cx="704.57859"
     inkscape:cy="493.31573"
     inkscape:window-x="0"
     inkscape:window-y="24"
     inkscape:window-maximized="1"
     inkscape:current-layer="svg3039" />
  <metadata
     id="metadata3045">
    <rdf:RDF>
      <cc:Work
         rdf:about="">
        <dc:format>image/svg+xml</dc:format>
        <dc:type
           rdf:resource="http://purl.org/dc/dcmitype/StillImage" />
        <dc:title></dc:title>
      </cc:Work>
    </rdf:RDF>
  </metadata>
  <defs
     id="defs3043" />
  <path
     inkscape:connector-curvature="0"
     id="path3049"
     d="M-53.266368 -263.25501L-74.439929625 -266.09617625L-82.221321 -268.70971L-83.109616 -269.0586L-92.244604 -271.67203L-93.189848 -272.02781L-103.466910375 -275.7297125L-117.82528 -284.3324L-129.286564063 -294.354386094L-138.676065 -305.66261375L-145.993308438 -318.256399531L-151.23782 -332.13506L-153.76637 -341.24869L-121.3497 -341.63682L-88.428649 -340.38682L-87.845315 -340.38682L-86.329432375 -341.217535L-82.871298 -335.88682L-76.395815 -326.72837L-73.459788 -322.32386L-73.068781 -321.94992L-68.276501 -320.64199L-55.8351801563 -316.7791125L-41.521558 -315.90218L-28.1153270938 -317.8989025L-18.39618 -322.65699L-14.51028 -325.04739L-14.11637 -326.32015L-12.94204 -327.86204L-12.27813 -328.65585L-11.65756 -331.26793L-10.360826625 -339.59976875L-11.72126 -349.26954L-16.89568 -354.71675L-20.04897 -357.98854L-20.59162 -358.24481L-26.325738 -359.10547L-52.266348 -365.20329L-57.744108 -366.227L-73.121489 -369.71254L-87.95502 -373.25343L-92.077639 -374.31852L-101.76637 -377.38519L-125.21365625 -391.33270125L-134.097735156 -400.269083594L-140.30166 -409.85075L-143.28997 -418.4359L-143.66644 -419.19858L-145.60325 -424.89664L-146.4873375 -453.20857875L-143.564710625 -465.889253594L-138.33097 -478.08374L-126.77363625 -494.33376625L-117.64955 -501.06462L-117.10085 -501.369L-115.0308775 -504.60742875L-101.44899 -512.06841L-82.266368 -519.27258L-73.913246 -521.06348L-57.8222758672 -523.18138625L-40.0761899375 -522.968795L-22.1487456641 -520.53503375L-5.5137005 -515.98943L15.74675 -504.65804L16.99439 -503.99972L18.45885 -502.81249L19.20885 -502.1215L20.23363 -501.63682L21.14698 -501.08326L38.23363 -482.91913L39.07015 -481.63682L47.82652 -463.01829L48.198423 -462.11505L52.071203 -450.93565L52.999093 -446.73449L21.22356 -446.66489L-10.55197 -446.59529L-13.58085 -451.96217L-22.8638065 -462.726045L-34.266368 -469.19716L-57.016368 -470.62735L-69.970618 -467.28942L-78.629307875 -459.8673425L-81.766368 -448.57987L-79.422798375 -438.72834875L-71.8302 -432.15837L-45.766368 -424.75818L0.43138952 -413.42686L6.6294595 -410.46834L7.5774795 -410.21535L20.1306261875 -404.9304425L36.74509 -392.14843L46.02348025 -380.6599275L49.431763 -372.3869L50.188323 -371.6369L52.703833 -363.6369L53.668723 -361.70769L55.014053 -347.70769L54.2720279531 -331.185305937L50.648532625 -316.6102875L43.9102342344 -303.355962812L33.8238 -290.79566L23.2443204012 -281.994507187L9.80675107 -274.32973L-5.26983629625 -268.383255312L-20.76637 -264.73701L-53.266368 -263.25509L-53.266368 -263.25501M47.89591 -451.88682L47.39152 -450.63682L47.89591 -449.38682L47.89591 -451.88682L47.89591 -451.88682M-130.38481 -486.18876L-130.77782 -487.12974L-131.76637 -485.5778L-130.38481 -486.18876L-130.38481 -486.18876M25.23363 -492.02983L23.68169 -493.01837L22.74071 -492.62536L25.23363 -492.02983L25.23363 -492.02983M1356.7336 -263.2214L1345.8393 -264.18701L1338.3393 -265.80412L1337.5665 -266.16126L1320.3322375 -269.68918875L1302.8786 -277.47474L1300.7545 -278.63682L1288.4073 -286.60094L1286.8118 -289.76339L1286.2972 -290.17614L1280.0997625 -294.6617825L1275.6772 -301.35034L1275.1556 -302.08862L1272.7274125 -303.29394625L1271.7258 -306.37482L1271.1036 -307.37482L1262.8217375 -322.273905L1257.7516 -339.66593L1257.4929 -340.63682L1254.8743 -359.86518125L1254.2336 -438.45257L1254.2336 -519.66452L1286.4836 -519.40067L1318.7336 -519.13682L1319.2685 -439.13682L1320.014725 -369.18028375L1321.8849 -352.63682L1326.4202 -341.89369625L1333.0711 -333.30605L1346.431775 -324.33370625L1364.7336 -321.67328L1380.9271625 -324.11879875L1392.7816 -331.10391L1400.4098 -340.22057L1400.3598 -341.46749L1402.5882 -342.91763L1402.8562 -343.43829L1403.7502 -348.33091L1405.94110938 -355.062777969L1407.147775 -367.15940625L1408.1647 -439.63682L1408.7335 -519.13682L1440.7335 -519.13682L1472.7335 -519.13682L1473.0166 -439.13682L1472.664025 -361.65196125L1469.1337 -334.98063L1460.9002 -314.88768L1459.4002 -314.05983L1459.9835 -314.03553L1461.0305875 -313.42811625L1457.7567 -308.06286L1452.5291 -300.63684L1431.508 -281.27416L1414.934925 -272.630305L1397.7335 -266.82079L1375.2680125 -263.4998725L1356.7335 -263.22142L1356.7336 -263.2214M1327.6152 -335.18876L1327.2221 -336.12974L1326.2336 -334.5778L1327.6152 -335.18876L1327.6152 -335.18876M48.233633 -268.27548L75.273943 -340.13682L85.345353 -366.88682L87.267853 -370.63682L87.908173 -371.88682L106.75827 -422.63682L113.33607 -439.88682L115.49354 -443.63682L115.8173 -444.50143L123.68445 -463.92965L123.82961 -464.39544L126.74698 -475.3763L139.7296 -509.13682L141.74479 -514.63682L143.018909063 -517.581364844L146.976575 -519.05974875L177.29706 -519.63682L210.74383 -518.62032L211.8621 -514.90138L213.32146 -511.03098L220.61586 -492.13682L221.41547 -490.13682L227.74214 -474.13682L236.74191 -450.63682L267.62372 -367.98231L268.65357 -366.39636L268.91502 -365.24893L269.06345 -364.03164L271.64174 -356.48814L272.22411 -356.13094L273.02308 -354.31571L273.26203 -352.15437L275.04875 -349.87411L280.20091 -336.69138L284.62373 -324.69138L286.58762 -319.41894L288.23363 -314.82258L289.60523 -311.04046L295.71591 -295.63682L302.74091 -277.63682L305.69761 -269.88682L306.36841 -267.63682L273.27627 -267.63682L240.18413 -267.63682L239.09617 -270.38682L232.02365 -291.65213L231.61661 -292.40213L227.21458 -302.63682L223.04642 -313.88682L215.30988 -315.37259375L175.88932 -315.63682L129.61538 -315.63682L128.01193 -310.88682L122.90661 -296.63682L115.95511 -277.63682L112.50551 -268.13682L80.369573 -267.87297L48.233633 -268.27548L48.233633 -268.27548M201.83635 -371.22972L200.59148 -375.47972L199.22607 -379.13682L197.29943 -384.13682L194.73518 -391.63682L188.69282 -408.13682L182.05709 -425.98411L180.65252 -432.28605L180.27096 -433.15989L178.12413 -436.60795L176.28016 -440.63682L171.2792 -428.38682L165.87248 -414.13682L164.65397 -411.13682L159.20194 -395.63682L150.91714 -370.38682L176.89964 -369.63682L198.18426375 -369.8964275L201.83635 -371.22972L201.83635 -371.22972M248.61519 -411.18876L248.22218 -412.12974L247.23363 -410.5778L248.61519 -411.18876L248.61519 -411.18876M314.23363 -393.65048L314.23363 -519.66415L346.98363 -519.40048L379.73363 -519.13682L379.98749 -393.38682L380.24135 -267.63682L347.23749 -267.63682L314.23363 -267.63682L314.23363 -393.65048L314.23363 -393.65048M408.23363 -393.58398L408.23363 -519.54298L441.23363 -519.60948L474.23363 -519.67588L474.23363 -421.65635L474.23363 -323.63682L526.80102 -323.63682L571.60707625 -323.38087L578.86538 -321.88682L576.11946 -305.88682L573.08648 -291.63682L572.7327 -290.38682L571.41214 -278.63682L569.65528 -268.13682L488.94446 -267.88091L408.23363 -267.62499L408.23363 -393.58399L408.23363 -393.58398M592.74414 -268.6198L592.69394 -272.8698L597.74623 -301.63681L602.65582 -329.63681L606.93361 -353.63681L607.75541 -357.63681L608.59009 -363.13681L610.15372 -372.13681L615.91822 -402.63681L616.31575 -405.11682L617.74268 -415.61682L625.8157 -459.88681L626.39257 -462.63681L587.29406 -462.63681L548.19556 -462.63681L548.70643 -464.88681L552.75243 -488.13681L557.3315 -514.38681L558.37543 -519.63682L691.30453 -519.63682L824.23363 -519.63682L824.23363 -471.63682L824.23363 -423.63682L872.73363 -423.63682L921.76209 -423.38682L922.51209 -471.13682L922.73359 -519.13682L955.2336 -519.13682L987.7336 -519.13682L987.9875 -393.38682L988.2413 -267.63682L955.2204 -267.63682L922.19949 -267.63682L922.25249 -317.76785L921.76949 -368.43452L921.23389 -367.80349L872.73393 -366.63682L824.23393 -366.63682L824.23393 -317.13682L824.23393 -267.63682L791.73393 -267.63682L759.23393 -267.63682L759.23393 -365.13682L759.23393 -462.63682L725.47229 -462.63682L691.71066 -462.63682L687.99449 -441.88682L683.71412 -417.13682L678.26804 -386.13682L674.22623 -363.13682L668.751 -332.13682L662.24683 -295.13682L657.62893 -269.38682L652.30119875 -267.9047025L625.22556 -267.63682L592.74444 -268.61981L592.74414 -268.6198M1021.4797 -393.38682L1021.7336 -519.13682L1077.7336 -519.42352L1137.2617125 -518.977445L1162.7336 -516.09924L1191.1939 -503.97591L1212.3889 -483.35485L1221.5292 -463.11316L1225.939775 -438.23703875L1223.7328 -412.28679L1220.0548 -400.2801975L1216.72 -395.40678L1216.6195 -394.90749L1213.9901 -388.4648L1211.2714 -384.306L1194.8585 -367.93894L1190.2336 -364.63963L1175.0456 -358.25165L1176.7519 -355.09897L1183.5019 -345.38682L1190.9836 -334.13459L1195.7336 -326.87046L1198.9955 -321.48544L1200.6511 -315.99956L1200.9582 -315.40288L1205.299 -311.90288L1208.4801 -306.38682L1209.3406 -305.63682L1209.852 -304.08488L1210.1247 -303.0695L1231.9149 -271.34948L1234.1601 -267.56214L1197.8563 -267.6821L1161.5525 -267.80207L1157.9332 -273.96945L1148.7814 -288.63682L1143.7298 -298.43876L1143.3239 -299.19263L1136.2336 -309.39103L1135.4216 -310.80349L1127.7632 -322.13682L1118.0214 -337.39522L1115.8343 -342.79973L1115.4975 -343.29991L1112.8199 -345.14541L1111.833 -347.63682L1111.2336 -349.13682L1098.1112 -350.63682L1086.2336 -350.63682L1086.2336 -309.13682L1086.2336 -267.63682L1053.7297 -267.63682L1021.2259 -267.63682L1021.4797 -393.38682L1021.4797 -393.38682M1165.2336 -273.99462L1163.3139 -271.63682L1162.525275 -269.7870425L1163.6784 -271.07795L1165.2336 -273.99462L1165.2336 -273.99462M1156.6152 -282.18876L1156.2221 -283.12974L1155.2336 -281.5778L1156.6152 -282.18876L1156.6152 -282.18876M1193.9547 -325.10153L1193.569 -325.29091L1192.0025 -325.83003L1190.9864 -325.4349L1191.6823 -324.03592L1193.9547 -325.10153L1193.9547 -325.10153M1137.3471 -403.6519L1148.520475 -407.66157625L1156.3763 -414.48511L1159.8424 -420.11299L1161.2122 -425.59394L1160.9733125 -441.298045L1154.43 -454.98006L1148.26619375 -459.727249688L1139.57545 -462.6869475L1107.9017 -464.63682L1086.2336 -464.63682L1086.2336 -433.63682L1086.2336 -402.63682L1109.0971 -402.63682L1137.3471 -403.6519L1137.3471 -403.6519M1164.9167 -440.82432L1164.3125 -440.22015L1164.8378 -438.90765L1164.9168 -440.82432L1164.9167 -440.82432"
     style="fill:#000000" />
</svg>
